<svg width="1261" height="1079" viewBox="0 0 1261 1079" fill="none" xmlns="http://www.w3.org/2000/svg">
<g id="master">
<g id="JavaScript" clip-path="url(#clip0_1_19)">
<path id="Vector" d="M698 125H562C528.863 125 502 151.863 502 185V321C502 354.137 528.863 381 562 381H698C731.137 381 758 354.137 758 321V185C758 151.863 731.137 125 698 125Z" fill="#F0DB4F"/>
<path id="Vector_2" d="M569.312 338.932L588.903 327.076C592.682 333.777 596.12 339.447 604.367 339.447C612.272 339.447 617.256 336.355 617.256 324.327V242.529H641.314V324.667C641.314 349.584 626.708 360.926 605.398 360.926C586.153 360.926 574.982 350.959 569.311 338.93" fill="#323330"/>
<path id="Vector_3" d="M654.381 336.354L673.969 325.013C679.126 333.434 685.828 339.62 697.684 339.62C707.653 339.62 714.009 334.636 714.009 327.762C714.009 319.514 707.479 316.592 696.481 311.782L690.468 309.203C673.111 301.815 661.597 292.535 661.597 272.945C661.597 254.901 675.345 241.153 696.826 241.153C712.12 241.153 723.118 246.481 731.022 260.4L712.291 272.429C708.166 265.04 703.7 262.119 696.826 262.119C689.78 262.119 685.312 266.587 685.312 272.429C685.312 279.646 689.78 282.568 700.09 287.037L706.104 289.614C726.553 298.379 738.067 307.313 738.067 327.418C738.067 349.072 721.055 360.928 698.2 360.928C675.861 360.928 661.426 350.274 654.381 336.354Z" fill="#323330"/>
</g>
<g id="React-Dark" clip-path="url(#clip1_1_19)">
<path id="Vector_4" d="M423 260H287C253.863 260 227 286.863 227 320V456C227 489.137 253.863 516 287 516H423C456.137 516 483 489.137 483 456V320C483 286.863 456.137 260 423 260Z" fill="#242938"/>
<path id="Vector_5" d="M355.001 406.951C365.305 406.951 373.657 398.598 373.657 388.295C373.657 377.992 365.305 369.639 355.001 369.639C344.698 369.639 336.345 377.992 336.345 388.295C336.345 398.598 344.698 406.951 355.001 406.951Z" fill="#00D8FF"/>
<path id="Vector_6" fill-rule="evenodd" clip-rule="evenodd" d="M355.002 350.363C380.05 350.363 403.319 353.957 420.864 359.998C442.003 367.275 455 378.306 455 388.295C455 398.704 441.226 410.423 418.525 417.944C401.363 423.63 378.779 426.598 355.002 426.598C330.624 426.598 307.539 423.812 290.183 417.881C268.226 410.376 255 398.506 255 388.295C255 378.387 267.41 367.441 288.251 360.175C305.862 354.035 329.705 350.363 354.998 350.363H355.002Z" stroke="#00D8FF" stroke-width="8.911"/>
<path id="Vector_7" fill-rule="evenodd" clip-rule="evenodd" d="M321.981 369.438C334.495 347.74 349.232 329.378 363.23 317.197C380.094 302.521 396.144 296.773 404.796 301.762C413.813 306.962 417.084 324.75 412.259 348.171C408.614 365.879 399.9 386.925 388.021 407.523C375.842 428.641 361.897 447.247 348.09 459.315C330.619 474.587 313.728 480.114 304.883 475.013C296.3 470.067 293.018 453.846 297.136 432.161C300.615 413.838 309.345 391.349 321.977 369.438H321.981Z" stroke="#00D8FF" stroke-width="8.911"/>
<path id="Vector_8" fill-rule="evenodd" clip-rule="evenodd" d="M322.012 407.578C309.463 385.904 300.919 363.962 297.353 345.752C293.06 323.811 296.095 307.036 304.74 302.032C313.748 296.816 330.792 302.866 348.674 318.744C362.194 330.748 376.077 348.805 387.99 369.383C400.204 390.481 409.358 411.856 412.919 429.844C417.425 452.608 413.778 470.001 404.941 475.116C396.367 480.08 380.676 474.825 363.945 460.427C349.809 448.263 334.685 429.468 322.012 407.578Z" stroke="#00D8FF" stroke-width="8.911"/>
</g>
<g id="CSS" clip-path="url(#clip2_1_19)">
<path id="Vector_9" d="M973 260H837C803.863 260 777 286.863 777 320V456C777 489.137 803.863 516 837 516H973C1006.14 516 1033 489.137 1033 456V320C1033 286.863 1006.14 260 973 260Z" fill="#0277BD"/>
<path id="Vector_10" d="M830.753 362.651L833.615 394.593H905.096V362.651H830.753Z" fill="#EBEBEB"/>
<path id="Vector_11" d="M905.095 298H904.985H825L827.904 329.942H905.095V298Z" fill="#EBEBEB"/>
<path id="Vector_12" d="M905.095 478.841V445.608L904.955 445.645L869.381 436.04L867.107 410.564H849.821H835.042L839.517 460.718L904.948 478.882L905.095 478.841Z" fill="#EBEBEB"/>
<path id="Vector_13" d="M944.318 394.593L940.61 436.019L904.985 445.635V478.866L970.468 460.718L970.948 455.321L978.454 371.229L979.233 362.651L985 298H904.985V329.942H949.994L947.088 362.651H904.985V394.593H944.318Z" fill="white"/>
</g>
<g id="HTML" clip-path="url(#clip3_1_19)">
<path id="Vector_14" d="M698 411H562C528.863 411 502 437.863 502 471V607C502 640.137 528.863 667 562 667H698C731.137 667 758 640.137 758 607V471C758 437.863 731.137 411 698 411Z" fill="#E14E1D"/>
<path id="Vector_15" d="M550 449L558.61 545.593H669.32L665.605 587.023L629.959 596.661L594.38 587.037L592.001 560.435H559.939L564.524 611.716L629.951 629.888L695.461 611.716L704.244 513.655H587.824L584.901 480.945H707.041H707.139L710 449H550Z" fill="white"/>
<path id="Vector_16" d="M630 449H550L558.61 545.593H630V513.655H587.824L584.901 480.945H630V449Z" fill="#EBEBEB"/>
<path id="Vector_17" d="M630 596.647L629.959 596.661L594.38 587.037L592.001 560.435H559.939L564.524 611.716L629.951 629.888L630 629.874V596.647Z" fill="#EBEBEB"/>
</g>
<g id="MaterialUI-Dark" clip-path="url(#clip4_1_19)">
<path id="Vector_18" d="M423 560H287C253.863 560 227 586.863 227 620V756C227 789.137 253.863 816 287 816H423C456.137 816 483 789.137 483 756V620C483 586.863 456.137 560 423 560Z" fill="#242938"/>
<path id="Vector_19" fill-rule="evenodd" clip-rule="evenodd" d="M419.031 717.671C419.823 717.216 420.482 716.561 420.941 715.771C421.4 714.981 421.643 714.084 421.646 713.171L421.74 683.03C421.742 682.117 421.986 681.22 422.445 680.43C422.903 679.64 423.562 678.985 424.354 678.53L440.693 669.145C441.485 668.69 442.382 668.452 443.295 668.453C444.208 668.455 445.105 668.696 445.895 669.154C446.686 669.611 447.342 670.268 447.798 671.059C448.254 671.85 448.495 672.747 448.495 673.661V728.457C448.495 729.374 448.253 730.273 447.794 731.066C447.335 731.859 446.675 732.517 445.88 732.973L384.219 768.39C383.431 768.842 382.539 769.08 381.631 769.081C380.723 769.082 379.83 768.845 379.042 768.395L330.651 740.718C329.854 740.262 329.191 739.605 328.73 738.811C328.269 738.017 328.026 737.115 328.026 736.197V708.567C328.026 708.536 328.063 708.515 328.094 708.53C328.12 708.546 328.156 708.53 328.156 708.494V708.463C328.156 708.442 328.167 708.421 328.188 708.411L368.042 685.515C368.078 685.494 368.062 685.437 368.021 685.437C368.01 685.437 367.999 685.432 367.991 685.424C367.984 685.417 367.979 685.406 367.979 685.395L368.057 658.306C368.061 657.39 367.823 656.49 367.367 655.695C366.912 654.9 366.254 654.24 365.462 653.78C364.67 653.321 363.77 653.078 362.854 653.077C361.938 653.076 361.038 653.317 360.245 653.775L330.625 670.843C329.834 671.298 328.938 671.538 328.026 671.538C327.114 671.538 326.218 671.298 325.427 670.843L295.714 653.734C294.922 653.278 294.024 653.038 293.111 653.039C292.197 653.039 291.3 653.28 290.509 653.737C289.718 654.194 289.061 654.851 288.605 655.642C288.148 656.433 287.907 657.33 287.906 658.244V707.202C287.907 708.115 287.668 709.011 287.213 709.802C286.758 710.593 286.103 711.251 285.314 711.709C284.525 712.168 283.629 712.411 282.717 712.414C281.804 712.417 280.907 712.181 280.115 711.728L263.625 702.301C262.826 701.845 262.163 701.185 261.702 700.389C261.241 699.594 260.999 698.69 261 697.77L261.146 612.197C261.148 611.285 261.389 610.389 261.846 609.599C262.303 608.81 262.96 608.154 263.75 607.698C264.54 607.242 265.436 607.001 266.348 607C267.26 606.999 268.157 607.238 268.948 607.692L325.432 640.135C326.222 640.588 327.116 640.826 328.026 640.826C328.936 640.826 329.831 640.588 330.62 640.135L387.089 607.692C387.881 607.237 388.779 606.998 389.692 607C390.606 607.002 391.503 607.244 392.294 607.702C393.084 608.16 393.74 608.818 394.196 609.61C394.652 610.401 394.891 611.299 394.891 612.213V697.806C394.891 698.722 394.65 699.622 394.192 700.414C393.734 701.207 393.075 701.865 392.281 702.322L362.708 719.353C361.914 719.811 361.255 720.471 360.797 721.265C360.339 722.059 360.099 722.961 360.101 723.878C360.103 724.794 360.347 725.694 360.809 726.487C361.27 727.279 361.933 727.935 362.729 728.39L379.042 737.676C379.83 738.125 380.722 738.36 381.629 738.358C382.536 738.356 383.427 738.118 384.214 737.666L419.031 717.671ZM422.453 640.89C422.454 641.811 422.699 642.715 423.163 643.511C423.627 644.306 424.294 644.964 425.096 645.418C425.897 645.872 426.805 646.105 427.726 646.094C428.647 646.082 429.548 645.827 430.339 645.353L445.964 635.978C446.735 635.516 447.373 634.862 447.817 634.08C448.261 633.298 448.494 632.414 448.495 631.515V612.411C448.493 611.49 448.247 610.586 447.783 609.791C447.318 608.997 446.651 608.339 445.85 607.886C445.048 607.433 444.141 607.2 443.221 607.212C442.3 607.224 441.399 607.479 440.609 607.952L424.984 617.327C424.213 617.789 423.574 618.443 423.131 619.226C422.687 620.008 422.454 620.892 422.453 621.791V640.895V640.89Z" fill="#007FFF"/>
</g>
<g id="NodeJS-Dark" clip-path="url(#clip5_1_19)">
<path id="Vector_20" d="M973 560H837C803.863 560 777 586.863 777 620V756C777 789.137 803.863 816 837 816H973C1006.14 816 1033 789.137 1033 756V620C1033 586.863 1006.14 560 973 560Z" fill="#242938"/>
<path id="Vector_21" d="M896.878 591.116C901.797 588.301 908.203 588.288 913.117 591.116C937.839 605.085 962.569 619.033 987.287 633.011C991.937 635.63 995.046 640.804 994.999 646.161V730.206C995.034 735.785 991.617 741.083 986.712 743.642C962.071 757.535 937.442 771.444 912.805 785.337C907.786 788.207 901.251 787.986 896.387 784.88C889 780.598 881.6 776.336 874.212 772.058C872.702 771.158 871 770.442 869.935 768.978C870.877 767.708 872.562 767.55 873.931 766.995C877.014 766.014 879.847 764.44 882.679 762.913C883.396 762.423 884.27 762.611 884.957 763.049C891.274 766.671 897.536 770.399 903.874 773.986C905.226 774.767 906.595 773.73 907.751 773.086C931.931 759.419 956.141 745.805 980.318 732.134C981.214 731.703 981.709 730.752 981.636 729.771C981.653 702.046 981.64 674.317 981.645 646.592C981.747 645.478 981.103 644.455 980.096 643.999C955.541 630.17 930.997 616.32 906.446 602.488C905.575 601.889 904.426 601.888 903.554 602.484C879.002 616.32 854.464 630.183 829.912 644.011C828.909 644.467 828.236 645.474 828.355 646.592C828.36 674.317 828.355 702.046 828.355 729.775C828.268 730.756 828.801 731.687 829.691 732.109C836.242 735.824 842.802 739.513 849.358 743.216C853.052 745.203 857.586 746.385 861.656 744.862C865.246 743.574 867.763 739.909 867.695 736.097C867.729 708.534 867.678 680.967 867.72 653.408C867.631 652.184 868.791 651.173 869.981 651.288C873.129 651.267 876.281 651.246 879.429 651.297C880.743 651.267 881.647 652.585 881.485 653.817C881.472 681.555 881.519 709.293 881.464 737.03C881.472 744.423 878.435 752.467 871.597 756.084C863.174 760.447 852.762 759.522 844.44 755.338C837.236 751.742 830.36 747.498 823.284 743.646C818.366 741.101 814.966 735.782 815.001 730.207V646.161C814.949 640.693 818.183 635.425 822.976 632.844C847.613 618.941 872.246 605.026 896.878 591.116Z" fill="#81CD39"/>
<path id="Vector_22" d="M918.372 649.335C929.117 648.643 940.62 648.926 950.289 654.219C957.776 658.275 961.926 666.789 962.058 675.106C961.849 676.227 960.676 676.846 959.605 676.769C956.488 676.765 953.369 676.812 950.252 676.748C948.929 676.799 948.161 675.58 947.995 674.411C947.099 670.431 944.928 666.49 941.183 664.57C935.433 661.692 928.767 661.837 922.497 661.897C917.92 662.139 912.998 662.536 909.12 665.227C906.143 667.266 905.239 671.382 906.301 674.697C907.303 677.077 910.05 677.845 912.299 678.553C925.248 681.94 938.97 681.602 951.672 686.059C956.931 687.876 962.075 691.409 963.875 696.915C966.23 704.295 965.198 713.115 959.947 719.039C955.689 723.914 949.488 726.568 943.303 728.009C935.075 729.844 926.536 729.891 918.18 729.076C910.323 728.18 902.146 726.116 896.081 720.763C890.894 716.259 888.361 709.241 888.612 702.469C888.672 701.325 889.811 700.527 890.907 700.621C894.046 700.596 897.186 700.587 900.325 700.626C901.58 700.536 902.509 701.62 902.574 702.802C903.152 706.593 904.577 710.573 907.884 712.82C914.264 716.937 922.271 716.655 929.577 716.77C935.63 716.502 942.425 716.421 947.364 712.42C949.97 710.138 950.742 706.32 950.038 703.036C949.275 700.263 946.374 698.971 943.883 698.126C931.1 694.083 917.224 695.55 904.565 690.977C899.425 689.161 894.455 685.727 892.481 680.447C889.726 672.974 890.988 663.73 896.789 658.006C902.445 652.312 910.609 650.12 918.372 649.335Z" fill="#81CD39"/>
</g>
<g id="Redux" clip-path="url(#clip6_1_19)">
<path id="Vector_23" d="M698 697H562C528.863 697 502 723.863 502 757V893C502 926.137 528.863 953 562 953H698C731.137 953 758 926.137 758 893V757C758 723.863 731.137 697 698 697Z" fill="#764ABC"/>
<path id="Vector_24" d="M668.579 862.599C675.96 861.835 681.559 855.472 681.304 847.837C681.05 840.202 674.687 834.094 667.052 834.094H666.543C658.653 834.348 652.545 840.965 652.799 848.855C653.054 852.673 654.581 855.981 656.871 858.272C648.218 875.324 634.984 887.795 615.132 898.23C601.643 905.356 587.645 907.901 573.647 906.12C562.194 904.593 553.287 899.502 547.687 891.104C539.543 878.633 538.78 865.144 545.651 851.655C550.487 841.983 558.122 834.857 562.958 831.294C561.94 827.986 560.413 822.386 559.649 818.314C522.746 845.038 526.563 881.178 537.761 898.23C546.16 910.955 563.212 918.845 582.046 918.845C587.136 918.845 592.226 918.336 597.316 917.063C629.894 910.701 654.581 891.358 668.579 862.599Z" fill="white"/>
<path id="Vector_25" d="M713.372 831.04C694.03 808.388 665.525 795.917 632.948 795.917H628.876C626.585 791.336 621.749 788.282 616.405 788.282H615.896C608.006 788.537 601.898 795.154 602.152 803.044C602.407 810.679 608.769 816.787 616.405 816.787H616.914C622.513 816.533 627.349 812.97 629.385 808.134H633.966C653.308 808.134 671.633 813.733 688.176 824.677C700.901 833.076 710.064 844.02 715.154 857.254C719.481 867.943 719.226 878.378 714.645 887.286C707.519 900.775 695.557 908.156 679.777 908.156C669.597 908.156 659.926 905.102 654.835 902.811C652.036 905.356 646.946 909.428 643.383 911.973C654.326 917.063 665.525 919.863 676.214 919.863C700.647 919.863 718.717 906.374 725.589 892.885C732.97 878.124 732.461 852.673 713.372 831.04Z" fill="white"/>
<path id="Vector_26" d="M584.082 866.926C584.337 874.561 590.699 880.669 598.335 880.669H598.844C606.733 880.414 612.842 873.797 612.587 865.907C612.333 858.272 605.97 852.164 598.335 852.164H597.826C597.317 852.164 596.553 852.164 596.044 852.419C585.609 835.112 581.283 816.278 582.81 795.918C583.828 780.647 588.918 767.413 597.826 756.469C605.206 747.052 619.459 742.471 629.13 742.216C656.108 741.707 667.561 775.302 668.324 788.791C671.633 789.555 677.232 791.337 681.05 792.609C677.996 751.379 652.545 730 628.112 730C605.206 730 584.082 746.543 575.683 770.976C563.976 803.553 571.611 834.857 585.864 859.545C584.591 861.326 583.828 864.126 584.082 866.926Z" fill="white"/>
</g>
</g>
<defs>
<clipPath id="clip0_1_19">
<rect width="256" height="256" fill="white" transform="translate(502 125)"/>
</clipPath>
<clipPath id="clip1_1_19">
<rect width="256" height="256" fill="white" transform="translate(227 260)"/>
</clipPath>
<clipPath id="clip2_1_19">
<rect width="256" height="256" fill="white" transform="translate(777 260)"/>
</clipPath>
<clipPath id="clip3_1_19">
<rect width="256" height="256" fill="white" transform="translate(502 411)"/>
</clipPath>
<clipPath id="clip4_1_19">
<rect width="256" height="256" fill="white" transform="translate(227 560)"/>
</clipPath>
<clipPath id="clip5_1_19">
<rect width="256" height="256" fill="white" transform="translate(777 560)"/>
</clipPath>
<clipPath id="clip6_1_19">
<rect width="256" height="256" fill="white" transform="translate(502 697)"/>
</clipPath>
</defs>
</svg>
