<svg width="798" height="174" viewBox="0 0 798 174" fill="none" xmlns="http://www.w3.org/2000/svg">
<g id="name" clip-path="url(#clip0_3_139)">
<path id="Lars Sandell" d="M9.875 131V39.625H34.5625V111.062H69.75V131H9.875ZM117.5 58.9375C126.458 58.9375 133.458 61.1667 138.5 65.625C143.542 70.0417 146.062 76.3542 146.062 84.5625V131H129.125L124.438 121.625H123.938C121.938 124.125 119.875 126.167 117.75 127.75C115.667 129.292 113.271 130.417 110.562 131.125C107.854 131.875 104.542 132.25 100.625 132.25C96.5417 132.25 92.875 131.417 89.625 129.75C86.375 128.083 83.8125 125.562 81.9375 122.188C80.0625 118.812 79.125 114.542 79.125 109.375C79.125 101.792 81.75 96.1667 87 92.5C92.25 88.8333 99.8542 86.7708 109.812 86.3125L121.625 85.9375V84.9375C121.625 81.7708 120.833 79.5208 119.25 78.1875C117.708 76.8542 115.625 76.1875 113 76.1875C110.208 76.1875 107.083 76.6875 103.625 77.6875C100.208 78.6458 96.7708 79.8958 93.3125 81.4375L86.25 65.3125C90.3333 63.2292 94.9583 61.6458 100.125 60.5625C105.292 59.4792 111.083 58.9375 117.5 58.9375ZM121.75 99.375L116.125 99.625C111.625 99.7917 108.458 100.583 106.625 102C104.833 103.375 103.938 105.354 103.938 107.938C103.938 110.354 104.583 112.146 105.875 113.312C107.167 114.438 108.875 115 111 115C113.958 115 116.479 114.062 118.562 112.188C120.688 110.312 121.75 107.875 121.75 104.875V99.375ZM205.438 58.9375C206.771 58.9375 208.167 59.0417 209.625 59.25C211.083 59.4167 212.167 59.5625 212.875 59.6875L210.688 82.75C209.896 82.5417 208.875 82.375 207.625 82.25C206.375 82.0833 204.625 82 202.375 82C200.833 82 199.188 82.1458 197.438 82.4375C195.688 82.7292 194.021 83.3542 192.438 84.3125C190.896 85.2292 189.625 86.6458 188.625 88.5625C187.625 90.4375 187.125 92.9792 187.125 96.1875V131H162.688V60.1875H180.875L184.688 71.5H185.875C187.167 69.1667 188.812 67.0625 190.812 65.1875C192.854 63.2708 195.125 61.75 197.625 60.625C200.167 59.5 202.771 58.9375 205.438 58.9375ZM275.438 109.25C275.438 113.75 274.438 117.729 272.438 121.188C270.438 124.646 267.229 127.354 262.812 129.312C258.438 131.271 252.667 132.25 245.5 132.25C240.458 132.25 235.938 131.979 231.938 131.438C227.979 130.896 223.958 129.854 219.875 128.312V108.75C224.333 110.792 228.875 112.271 233.5 113.188C238.125 114.062 241.771 114.5 244.438 114.5C247.188 114.5 249.188 114.208 250.438 113.625C251.729 113 252.375 112.083 252.375 110.875C252.375 109.833 251.938 108.958 251.062 108.25C250.229 107.5 248.708 106.646 246.5 105.688C244.333 104.729 241.271 103.438 237.312 101.812C233.396 100.188 230.125 98.4167 227.5 96.5C224.917 94.5833 222.979 92.2917 221.688 89.625C220.396 86.9583 219.75 83.6875 219.75 79.8125C219.75 72.8958 222.417 67.6875 227.75 64.1875C233.083 60.6875 240.146 58.9375 248.938 58.9375C253.604 58.9375 258 59.4583 262.125 60.5C266.25 61.5 270.521 62.9792 274.938 64.9375L268.25 80.6875C264.75 79.1042 261.208 77.8333 257.625 76.875C254.042 75.9167 251.188 75.4375 249.062 75.4375C247.146 75.4375 245.667 75.6875 244.625 76.1875C243.583 76.6875 243.062 77.4167 243.062 78.375C243.062 79.25 243.417 80.0208 244.125 80.6875C244.875 81.3542 246.271 82.125 248.312 83C250.354 83.875 253.333 85.1042 257.25 86.6875C261.375 88.3542 264.771 90.1458 267.438 92.0625C270.146 93.9375 272.146 96.2292 273.438 98.9375C274.771 101.646 275.438 105.083 275.438 109.25ZM383.5 103.25C383.5 108.208 382.25 112.917 379.75 117.375C377.25 121.792 373.354 125.375 368.062 128.125C362.812 130.875 356.021 132.25 347.688 132.25C343.521 132.25 339.854 132.062 336.688 131.688C333.562 131.312 330.646 130.708 327.938 129.875C325.229 129 322.417 127.875 319.5 126.5V104.5C324.458 107 329.458 108.917 334.5 110.25C339.542 111.542 344.104 112.188 348.188 112.188C350.646 112.188 352.646 111.896 354.188 111.312C355.771 110.729 356.938 109.938 357.688 108.938C358.438 107.896 358.812 106.708 358.812 105.375C358.812 103.792 358.25 102.458 357.125 101.375C356.042 100.25 354.292 99.0833 351.875 97.875C349.458 96.6667 346.271 95.1667 342.312 93.375C338.938 91.7917 335.875 90.1667 333.125 88.5C330.417 86.8333 328.083 84.9375 326.125 82.8125C324.208 80.6458 322.729 78.125 321.688 75.25C320.646 72.375 320.125 68.9792 320.125 65.0625C320.125 59.1875 321.562 54.2708 324.438 50.3125C327.354 46.3125 331.396 43.3125 336.562 41.3125C341.771 39.3125 347.771 38.3125 354.562 38.3125C360.521 38.3125 365.875 38.9792 370.625 40.3125C375.417 41.6458 379.708 43.1667 383.5 44.875L375.938 63.9375C372.021 62.1458 368.167 60.7292 364.375 59.6875C360.583 58.6042 357.062 58.0625 353.812 58.0625C351.688 58.0625 349.938 58.3333 348.562 58.875C347.229 59.375 346.229 60.0625 345.562 60.9375C344.938 61.8125 344.625 62.8125 344.625 63.9375C344.625 65.3542 345.167 66.625 346.25 67.75C347.375 68.875 349.229 70.1042 351.812 71.4375C354.438 72.7292 358 74.4167 362.5 76.5C366.958 78.5 370.75 80.6667 373.875 83C377 85.2917 379.375 88.0625 381 91.3125C382.667 94.5208 383.5 98.5 383.5 103.25ZM430.75 58.9375C439.708 58.9375 446.708 61.1667 451.75 65.625C456.792 70.0417 459.312 76.3542 459.312 84.5625V131H442.375L437.688 121.625H437.188C435.188 124.125 433.125 126.167 431 127.75C428.917 129.292 426.521 130.417 423.812 131.125C421.104 131.875 417.792 132.25 413.875 132.25C409.792 132.25 406.125 131.417 402.875 129.75C399.625 128.083 397.062 125.562 395.188 122.188C393.312 118.812 392.375 114.542 392.375 109.375C392.375 101.792 395 96.1667 400.25 92.5C405.5 88.8333 413.104 86.7708 423.062 86.3125L434.875 85.9375V84.9375C434.875 81.7708 434.083 79.5208 432.5 78.1875C430.958 76.8542 428.875 76.1875 426.25 76.1875C423.458 76.1875 420.333 76.6875 416.875 77.6875C413.458 78.6458 410.021 79.8958 406.562 81.4375L399.5 65.3125C403.583 63.2292 408.208 61.6458 413.375 60.5625C418.542 59.4792 424.333 58.9375 430.75 58.9375ZM435 99.375L429.375 99.625C424.875 99.7917 421.708 100.583 419.875 102C418.083 103.375 417.188 105.354 417.188 107.938C417.188 110.354 417.833 112.146 419.125 113.312C420.417 114.438 422.125 115 424.25 115C427.208 115 429.729 114.062 431.812 112.188C433.938 110.312 435 107.875 435 104.875V99.375ZM520.25 58.9375C527.542 58.9375 533.5 61 538.125 65.125C542.75 69.25 545.062 75.8542 545.062 84.9375V131H520.625V92.375C520.625 87.6667 519.938 84.125 518.562 81.75C517.229 79.3333 515.062 78.125 512.062 78.125C507.438 78.125 504.333 80.0208 502.75 83.8125C501.167 87.5625 500.375 92.9583 500.375 100V131H475.938V60.1875H494.375L497.688 69.5625H498.625C500.125 67.3125 501.917 65.3958 504 63.8125C506.083 62.2292 508.479 61.0208 511.188 60.1875C513.896 59.3542 516.917 58.9375 520.25 58.9375ZM583.688 132.25C576.396 132.25 570.396 129.146 565.688 122.938C560.979 116.729 558.625 107.646 558.625 95.6875C558.625 83.6042 561.042 74.4583 565.875 68.25C570.708 62.0417 576.958 58.9375 584.625 58.9375C587.792 58.9375 590.521 59.3958 592.812 60.3125C595.104 61.2292 597.083 62.4792 598.75 64.0625C600.458 65.6042 601.938 67.3542 603.188 69.3125H603.688C603.396 67.5208 603.125 65.0625 602.875 61.9375C602.625 58.7708 602.5 55.6875 602.5 52.6875V33.75H627.125V131H608.688L603.438 122.062H602.5C601.375 123.938 599.958 125.646 598.25 127.188C596.583 128.729 594.542 129.958 592.125 130.875C589.75 131.792 586.938 132.25 583.688 132.25ZM593.688 112.938C597.604 112.938 600.354 111.708 601.938 109.25C603.562 106.75 604.438 102.958 604.562 97.875V95.9375C604.562 90.3542 603.771 86.0833 602.188 83.125C600.646 80.125 597.729 78.625 593.438 78.625C590.521 78.625 588.104 80.0417 586.188 82.875C584.271 85.7083 583.312 90.1042 583.312 96.0625C583.312 101.938 584.271 106.229 586.188 108.938C588.146 111.604 590.646 112.938 593.688 112.938ZM675.938 58.9375C682.812 58.9375 688.75 60.1458 693.75 62.5625C698.75 64.9375 702.604 68.5208 705.312 73.3125C708.021 78.1042 709.375 84.1042 709.375 91.3125V102.188H665.688C665.896 105.896 667.271 108.938 669.812 111.312C672.396 113.688 676.188 114.875 681.188 114.875C685.604 114.875 689.646 114.438 693.312 113.562C697.021 112.688 700.833 111.333 704.75 109.5V127.062C701.333 128.854 697.604 130.167 693.562 131C689.521 131.833 684.417 132.25 678.25 132.25C671.125 132.25 664.75 130.979 659.125 128.438C653.5 125.896 649.062 121.958 645.812 116.625C642.604 111.292 641 104.438 641 96.0625C641 87.5625 642.458 80.5833 645.375 75.125C648.292 69.625 652.375 65.5625 657.625 62.9375C662.875 60.2708 668.979 58.9375 675.938 58.9375ZM676.812 75.5625C673.938 75.5625 671.521 76.4792 669.562 78.3125C667.646 80.1042 666.521 82.9375 666.188 86.8125H687.188C687.146 84.7292 686.729 82.8333 685.938 81.125C685.146 79.4167 683.979 78.0625 682.438 77.0625C680.938 76.0625 679.062 75.5625 676.812 75.5625ZM747.625 131H723.188V33.75H747.625V131ZM789 131H764.562V33.75H789V131Z" fill="black"/>
</g>
<defs>
<clipPath id="clip0_3_139">
<rect width="798" height="174" fill="white"/>
</clipPath>
</defs>
</svg>
