<svg width="768" height="1028" viewBox="0 0 768 1028" fill="none" xmlns="http://www.w3.org/2000/svg">
<g id="skill_icons2" clip-path="url(#clip0_3_95)">
<g id="JavaScript" clip-path="url(#clip1_3_95)">
<path id="Vector" d="M196 0L60 0C26.8629 0 0 26.8629 0 60L0 196C0 229.137 26.8629 256 60 256H196C229.137 256 256 229.137 256 196V60C256 26.8629 229.137 0 196 0Z" fill="#F0DB4F"/>
<g id="jsInner">
<path id="Vector_2" d="M67.3117 213.932L86.9027 202.076C90.6821 208.777 94.1202 214.447 102.367 214.447C110.272 214.447 115.256 211.355 115.256 199.327V117.529H139.314V199.667C139.314 224.584 124.708 235.926 103.398 235.926C84.1533 235.926 72.9819 225.959 67.3113 213.93" fill="#323330"/>
<path id="Vector_3" d="M152.381 211.354L171.969 200.013C177.126 208.434 183.828 214.62 195.684 214.62C205.653 214.62 212.009 209.636 212.009 202.762C212.009 194.514 205.479 191.592 194.481 186.782L188.468 184.203C171.111 176.815 159.597 167.535 159.597 147.945C159.597 129.901 173.345 116.153 194.826 116.153C210.12 116.153 221.118 121.481 229.022 135.4L210.291 147.429C206.166 140.04 201.7 137.119 194.826 137.119C187.78 137.119 183.312 141.587 183.312 147.429C183.312 154.646 187.78 157.568 198.09 162.037L204.104 164.614C224.553 173.379 236.067 182.313 236.067 202.418C236.067 224.072 219.055 235.928 196.2 235.928C173.861 235.928 159.426 225.274 152.381 211.354Z" fill="#323330"/>
</g>
</g>
<g id="React-Dark" clip-path="url(#clip2_3_95)">
<path id="Vector_4" d="M196 258H60C26.8629 258 0 284.863 0 318L0 454C0 487.137 26.8629 514 60 514H196C229.137 514 256 487.137 256 454V318C256 284.863 229.137 258 196 258Z" fill="#242938"/>
<g id="reactInner">
<path id="Vector_5" fill-rule="evenodd" clip-rule="evenodd" d="M128.002 348.363C153.05 348.363 176.319 351.957 193.864 357.998C215.003 365.275 228 376.306 228 386.295C228 396.704 214.226 408.423 191.525 415.944C174.363 421.63 151.779 424.598 128.002 424.598C103.624 424.598 80.5389 421.812 63.1834 415.881C41.2255 408.376 28 396.506 28 386.295C28 376.387 40.4096 365.441 61.2515 358.175C78.8617 352.035 102.705 348.363 127.998 348.363H128.002Z" stroke="#00D8FF" stroke-width="8.911"/>
<path id="Vector_6" fill-rule="evenodd" clip-rule="evenodd" d="M94.9811 367.438C107.495 345.74 122.232 327.378 136.23 315.197C153.094 300.521 169.144 294.773 177.796 299.762C186.813 304.962 190.084 322.75 185.259 346.171C181.614 363.879 172.9 384.925 161.021 405.523C148.842 426.641 134.897 445.247 121.09 457.315C103.619 472.587 86.7284 478.114 77.8833 473.013C69.3003 468.067 66.0181 451.846 70.1356 430.161C73.6145 411.838 82.3451 389.349 94.977 367.438H94.9811Z" stroke="#00D8FF" stroke-width="8.911"/>
<path id="Vector_7" fill-rule="evenodd" clip-rule="evenodd" d="M95.0123 405.578C82.4633 383.904 73.9194 361.962 70.3531 343.752C66.0602 321.811 69.0954 305.036 77.7401 300.032C86.7485 294.816 103.792 300.866 121.674 316.744C135.194 328.748 149.077 346.805 160.99 367.383C173.204 388.481 182.358 409.856 185.919 427.844C190.425 450.608 186.778 468.001 177.941 473.116C169.367 478.08 153.676 472.825 136.945 458.427C122.809 446.263 107.685 427.468 95.0123 405.578Z" stroke="#00D8FF" stroke-width="8.911"/>
<path id="Vector_8" d="M128.001 404.951C138.305 404.951 146.657 396.598 146.657 386.295C146.657 375.992 138.305 367.639 128.001 367.639C117.698 367.639 109.345 375.992 109.345 386.295C109.345 396.598 117.698 404.951 128.001 404.951Z" fill="#00D8FF"/>
</g>
</g>
<g id="CSS" clip-path="url(#clip3_3_95)">
<path id="Vector_9" d="M452 256H316C282.863 256 256 282.863 256 316V452C256 485.137 282.863 512 316 512H452C485.137 512 512 485.137 512 452V316C512 282.863 485.137 256 452 256Z" fill="#0277BD"/>
<g id="cssInner">
<path id="Vector_10" d="M309.753 358.651L312.615 390.593H384.096V358.651H309.753Z" fill="#EBEBEB"/>
<path id="Vector_11" d="M384.095 294H383.985H304L306.904 325.942H384.095V294Z" fill="#EBEBEB"/>
<path id="Vector_12" d="M384.095 474.841V441.608L383.955 441.645L348.381 432.04L346.107 406.564H328.821H314.042L318.517 456.718L383.948 474.882L384.095 474.841Z" fill="#EBEBEB"/>
<path id="Vector_13" d="M423.318 390.593L419.61 432.019L383.985 441.635V474.866L449.468 456.718L449.948 451.321L457.454 367.229L458.233 358.651L464 294H383.985V325.942H428.994L426.088 358.651H383.985V390.593H423.318Z" fill="white"/>
</g>
</g>
<g id="Redux" clip-path="url(#clip4_3_95)">
<path id="Vector_14" d="M452 514H316C282.863 514 256 540.863 256 574V710C256 743.137 282.863 770 316 770H452C485.137 770 512 743.137 512 710V574C512 540.863 485.137 514 452 514Z" fill="#764ABC"/>
<g id="reduxInner">
<path id="Vector_15" d="M422.579 679.599C429.96 678.835 435.559 672.472 435.304 664.837C435.05 657.202 428.687 651.094 421.052 651.094H420.543C412.653 651.348 406.545 657.965 406.799 665.855C407.054 669.673 408.581 672.981 410.871 675.272C402.218 692.324 388.984 704.795 369.132 715.23C355.643 722.356 341.645 724.901 327.647 723.12C316.194 721.593 307.287 716.502 301.687 708.104C293.543 695.633 292.78 682.144 299.651 668.655C304.487 658.983 312.122 651.857 316.958 648.294C315.94 644.986 314.413 639.386 313.649 635.314C276.746 662.038 280.563 698.178 291.761 715.23C300.16 727.955 317.212 735.845 336.046 735.845C341.136 735.845 346.226 735.336 351.316 734.063C383.894 727.701 408.581 708.358 422.579 679.599Z" fill="white"/>
<path id="Vector_16" d="M467.372 648.04C448.03 625.388 419.525 612.918 386.948 612.918H382.876C380.585 608.336 375.749 605.282 370.405 605.282H369.896C362.006 605.537 355.898 612.154 356.152 620.044C356.407 627.679 362.769 633.787 370.405 633.787H370.914C376.513 633.533 381.349 629.97 383.385 625.134H387.966C407.308 625.134 425.633 630.733 442.176 641.677C454.901 650.076 464.064 661.02 469.154 674.254C473.481 684.943 473.226 695.378 468.645 704.286C461.519 717.775 449.557 725.156 433.777 725.156C423.597 725.156 413.926 722.102 408.835 719.811C406.036 722.356 400.946 726.428 397.383 728.973C408.326 734.063 419.525 736.863 430.214 736.863C454.647 736.863 472.717 723.374 479.589 709.885C486.97 695.124 486.461 669.673 467.372 648.04Z" fill="white"/>
<path id="Vector_17" d="M338.082 683.926C338.337 691.561 344.699 697.669 352.335 697.669H352.844C360.733 697.414 366.842 690.797 366.587 682.907C366.333 675.272 359.97 669.164 352.335 669.164H351.826C351.317 669.164 350.553 669.164 350.044 669.419C339.609 652.112 335.283 633.278 336.81 612.918C337.828 597.647 342.918 584.413 351.826 573.469C359.206 564.052 373.459 559.471 383.13 559.216C410.108 558.707 421.561 592.302 422.324 605.791C425.633 606.555 431.232 608.337 435.05 609.609C431.996 568.379 406.545 547 382.112 547C359.206 547 338.082 563.543 329.683 587.976C317.976 620.553 325.611 651.857 339.864 676.545C338.591 678.326 337.828 681.126 338.082 683.926Z" fill="white"/>
</g>
</g>
<g id="HTML" clip-path="url(#clip5_3_95)">
<path id="Vector_18" d="M708 512H572C538.863 512 512 538.863 512 572V708C512 741.137 538.863 768 572 768H708C741.137 768 768 741.137 768 708V572C768 538.863 741.137 512 708 512Z" fill="#E14E1D"/>
<g id="htmlInner">
<path id="Vector_19" d="M560 550L568.61 646.593H679.32L675.605 688.023L639.959 697.661L604.38 688.037L602.001 661.435H569.939L574.524 712.716L639.951 730.888L705.461 712.716L714.244 614.655H597.824L594.901 581.945H717.041H717.139L720 550H560Z" fill="white"/>
<path id="Vector_20" d="M640 550H560L568.61 646.593H640V614.655H597.824L594.901 581.945H640V550Z" fill="#EBEBEB"/>
<path id="Vector_21" d="M640 697.647L639.959 697.661L604.38 688.037L602.001 661.435H569.939L574.524 712.716L639.951 730.888L640 730.874V697.647Z" fill="#EBEBEB"/>
</g>
</g>
<g id="NodeJS-Dark" clip-path="url(#clip6_3_95)">
<path id="Vector_22" d="M708 770H572C538.863 770 512 796.863 512 830V966C512 999.137 538.863 1026 572 1026H708C741.137 1026 768 999.137 768 966V830C768 796.863 741.137 770 708 770Z" fill="#242938"/>
<g id="nodejsInner">
<path id="Vector_23" d="M631.878 801.116C636.797 798.301 643.203 798.288 648.117 801.116C672.839 815.085 697.569 829.033 722.287 843.011C726.937 845.63 730.046 850.804 729.999 856.161V940.206C730.034 945.785 726.617 951.083 721.712 953.642C697.071 967.535 672.442 981.444 647.805 995.337C642.786 998.207 636.251 997.986 631.387 994.88C624 990.598 616.6 986.336 609.212 982.058C607.702 981.158 606 980.442 604.935 978.978C605.877 977.708 607.562 977.55 608.931 976.995C612.014 976.014 614.847 974.44 617.679 972.913C618.396 972.423 619.27 972.611 619.957 973.049C626.274 976.671 632.536 980.399 638.874 983.986C640.226 984.767 641.595 983.73 642.751 983.086C666.931 969.419 691.141 955.805 715.318 942.134C716.214 941.703 716.709 940.752 716.636 939.771C716.653 912.046 716.64 884.317 716.645 856.592C716.747 855.478 716.103 854.455 715.096 853.999C690.541 840.17 665.997 826.32 641.446 812.488C640.575 811.889 639.426 811.888 638.554 812.484C614.002 826.32 589.464 840.183 564.912 854.011C563.909 854.467 563.236 855.474 563.355 856.592C563.36 884.317 563.355 912.046 563.355 939.775C563.268 940.756 563.801 941.687 564.691 942.109C571.242 945.824 577.802 949.513 584.358 953.216C588.052 955.203 592.586 956.385 596.656 954.862C600.246 953.574 602.763 949.909 602.695 946.097C602.729 918.534 602.678 890.967 602.72 863.408C602.631 862.184 603.791 861.173 604.981 861.288C608.129 861.267 611.281 861.246 614.429 861.297C615.743 861.267 616.647 862.585 616.485 863.817C616.472 891.555 616.519 919.293 616.464 947.03C616.472 954.423 613.435 962.467 606.597 966.084C598.174 970.447 587.762 969.522 579.44 965.338C572.236 961.742 565.36 957.498 558.284 953.646C553.366 951.101 549.966 945.782 550.001 940.207V856.161C549.949 850.693 553.183 845.425 557.976 842.844C582.613 828.941 607.246 815.026 631.878 801.116Z" fill="#81CD39"/>
<path id="Vector_24" d="M653.372 859.335C664.117 858.643 675.62 858.926 685.289 864.219C692.776 868.275 696.926 876.789 697.058 885.106C696.849 886.227 695.676 886.846 694.605 886.769C691.488 886.765 688.369 886.812 685.252 886.748C683.929 886.799 683.161 885.58 682.995 884.411C682.099 880.431 679.928 876.49 676.183 874.57C670.433 871.692 663.767 871.837 657.497 871.897C652.92 872.139 647.998 872.536 644.12 875.227C641.143 877.266 640.239 881.382 641.301 884.697C642.303 887.077 645.05 887.845 647.299 888.553C660.248 891.94 673.97 891.602 686.672 896.059C691.931 897.876 697.075 901.409 698.875 906.915C701.23 914.295 700.198 923.115 694.947 929.039C690.689 933.914 684.488 936.568 678.303 938.009C670.075 939.844 661.536 939.891 653.18 939.076C645.323 938.18 637.146 936.116 631.081 930.763C625.894 926.259 623.361 919.241 623.612 912.469C623.672 911.325 624.811 910.527 625.907 910.621C629.046 910.596 632.186 910.587 635.325 910.626C636.58 910.536 637.509 911.62 637.574 912.802C638.152 916.593 639.577 920.573 642.884 922.82C649.264 926.937 657.271 926.655 664.577 926.77C670.63 926.502 677.425 926.421 682.364 922.42C684.97 920.138 685.742 916.32 685.038 913.036C684.275 910.263 681.374 908.971 678.883 908.126C666.1 904.083 652.224 905.55 639.565 900.977C634.425 899.161 629.455 895.727 627.481 890.447C624.726 882.974 625.988 873.73 631.789 868.006C637.445 862.312 645.609 860.12 653.372 859.335Z" fill="#81CD39"/>
</g>
</g>
<g id="MaterialUI-Dark" clip-path="url(#clip7_3_95)">
<path id="Vector_25" d="M452 772H316C282.863 772 256 798.863 256 832V968C256 1001.14 282.863 1028 316 1028H452C485.137 1028 512 1001.14 512 968V832C512 798.863 485.137 772 452 772Z" fill="#242938"/>
<path id="Vector_26" fill-rule="evenodd" clip-rule="evenodd" d="M448.031 929.671C448.823 929.216 449.482 928.561 449.941 927.771C450.4 926.981 450.643 926.084 450.646 925.171L450.74 895.03C450.742 894.117 450.986 893.22 451.445 892.43C451.903 891.64 452.562 890.985 453.354 890.53L469.693 881.145C470.485 880.69 471.382 880.452 472.295 880.453C473.208 880.455 474.105 880.696 474.895 881.154C475.686 881.611 476.342 882.268 476.798 883.059C477.254 883.85 477.495 884.747 477.495 885.661V940.457C477.495 941.374 477.253 942.273 476.794 943.066C476.335 943.859 475.675 944.517 474.88 944.973L413.219 980.39C412.431 980.842 411.539 981.08 410.631 981.081C409.723 981.082 408.83 980.845 408.042 980.395L359.651 952.718C358.854 952.262 358.191 951.605 357.73 950.811C357.269 950.017 357.026 949.115 357.026 948.197V920.567C357.026 920.536 357.063 920.515 357.094 920.53C357.12 920.546 357.156 920.53 357.156 920.494V920.463C357.156 920.442 357.167 920.421 357.188 920.411L397.042 897.515C397.078 897.494 397.062 897.437 397.021 897.437C397.01 897.437 396.999 897.432 396.991 897.424C396.984 897.417 396.979 897.406 396.979 897.395L397.057 870.306C397.061 869.39 396.823 868.49 396.367 867.695C395.912 866.9 395.254 866.24 394.462 865.78C393.67 865.321 392.77 865.078 391.854 865.077C390.938 865.076 390.038 865.317 389.245 865.775L359.625 882.843C358.834 883.298 357.938 883.538 357.026 883.538C356.114 883.538 355.218 883.298 354.427 882.843L324.714 865.733C323.922 865.278 323.024 865.038 322.111 865.039C321.197 865.039 320.3 865.28 319.509 865.737C318.718 866.194 318.061 866.851 317.605 867.642C317.148 868.433 316.907 869.33 316.906 870.244V919.202C316.907 920.115 316.668 921.011 316.213 921.802C315.758 922.593 315.103 923.251 314.314 923.709C313.525 924.168 312.629 924.411 311.717 924.414C310.804 924.417 309.907 924.181 309.115 923.728L292.625 914.301C291.826 913.845 291.163 913.185 290.702 912.389C290.241 911.594 289.999 910.69 290 909.77L290.146 824.197C290.148 823.285 290.389 822.389 290.846 821.599C291.303 820.81 291.96 820.154 292.75 819.698C293.54 819.242 294.436 819.001 295.348 819C296.26 818.999 297.157 819.237 297.948 819.692L354.432 852.134C355.222 852.588 356.116 852.826 357.026 852.826C357.936 852.826 358.831 852.588 359.62 852.134L416.089 819.692C416.881 819.237 417.779 818.998 418.692 819C419.606 819.002 420.503 819.244 421.294 819.702C422.084 820.16 422.74 820.818 423.196 821.61C423.652 822.401 423.891 823.299 423.891 824.213V909.806C423.891 910.722 423.65 911.622 423.192 912.414C422.734 913.207 422.075 913.865 421.281 914.322L391.708 931.353C390.914 931.811 390.255 932.471 389.797 933.265C389.339 934.059 389.099 934.961 389.101 935.878C389.103 936.794 389.347 937.694 389.809 938.487C390.27 939.279 390.933 939.935 391.729 940.39L408.042 949.676C408.83 950.125 409.722 950.36 410.629 950.358C411.536 950.356 412.427 950.118 413.214 949.666L448.031 929.671ZM451.453 852.89C451.454 853.811 451.699 854.715 452.163 855.511C452.627 856.306 453.294 856.964 454.096 857.418C454.897 857.872 455.805 858.105 456.726 858.093C457.647 858.082 458.548 857.827 459.339 857.353L474.964 847.978C475.735 847.516 476.373 846.862 476.817 846.08C477.261 845.298 477.494 844.414 477.495 843.515V824.41C477.493 823.49 477.247 822.586 476.783 821.791C476.318 820.997 475.651 820.339 474.85 819.886C474.048 819.433 473.141 819.2 472.221 819.212C471.3 819.224 470.399 819.479 469.609 819.952L453.984 829.327C453.213 829.789 452.574 830.443 452.131 831.226C451.687 832.008 451.454 832.891 451.453 833.791V852.895V852.89Z" fill="#007FFF"/>
</g>
<g id="Github-Dark 1" clip-path="url(#clip8_3_95)">
<path id="Vector_27" d="M196 516H60C26.8629 516 0 542.863 0 576V712C0 745.137 26.8629 772 60 772H196C229.137 772 256 745.137 256 712V576C256 542.863 229.137 516 196 516Z" fill="#242938"/>
<g id="girhubInner">
<path id="Vector_28" d="M128.001 546C72.7791 546 28 590.771 28 646.001C28 690.184 56.6533 727.668 96.3867 740.891C101.384 741.817 103.219 738.722 103.219 736.081C103.219 733.696 103.126 725.819 103.083 717.463C75.2631 723.512 69.3927 705.664 69.3927 705.664C64.8437 694.105 58.2894 691.032 58.2894 691.032C49.2163 684.825 58.9733 684.953 58.9733 684.953C69.0151 685.658 74.3026 695.258 74.3026 695.258C83.2217 710.546 97.6965 706.126 103.403 703.571C104.301 697.107 106.892 692.696 109.752 690.199C87.5405 687.67 64.1913 679.095 64.1913 640.778C64.1913 629.86 68.0977 620.939 74.4947 613.936C73.4564 611.418 70.0335 601.246 75.4635 587.472C75.4635 587.472 83.8609 584.785 102.971 597.723C110.948 595.507 119.502 594.396 128.001 594.358C136.499 594.396 145.061 595.507 153.052 597.723C172.139 584.785 180.525 587.472 180.525 587.472C185.968 601.246 182.544 611.418 181.505 613.936C187.917 620.939 191.797 629.86 191.797 640.778C191.797 679.187 168.403 687.644 146.135 690.119C149.722 693.223 152.918 699.308 152.918 708.638C152.918 722.018 152.802 732.787 152.802 736.081C152.802 738.742 154.602 741.86 159.671 740.878C199.383 727.64 228 690.169 228 646.001C228 590.771 183.227 546 128.001 546ZM65.4536 688.453C65.2333 688.95 64.4517 689.099 63.7396 688.758C63.0143 688.432 62.6069 687.754 62.8421 687.256C63.0574 686.744 63.8406 686.602 64.5643 686.945C65.2913 687.271 65.7053 687.955 65.4536 688.453ZM70.3725 692.842C69.8956 693.285 68.9633 693.079 68.3307 692.38C67.6766 691.683 67.554 690.751 68.0376 690.302C68.5294 689.86 69.4336 690.067 70.0893 690.764C70.7434 691.47 70.8709 692.395 70.3725 692.842ZM73.7471 698.458C73.1344 698.884 72.1325 698.485 71.5132 697.595C70.9004 696.706 70.9004 695.64 71.5264 695.212C72.1474 694.785 73.1344 695.169 73.762 696.052C74.373 696.956 74.373 698.023 73.7471 698.458ZM79.4542 704.962C78.9061 705.566 77.7386 705.404 76.8841 704.579C76.0098 703.773 75.7663 702.629 76.3161 702.024C76.8709 701.418 78.045 701.589 78.9061 702.407C79.7738 703.211 80.0387 704.364 79.4542 704.962ZM86.8301 707.157C86.5883 707.941 85.4639 708.297 84.3312 707.964C83.2002 707.621 82.46 706.704 82.6885 705.912C82.9237 705.124 84.053 704.753 85.194 705.109C86.3234 705.45 87.0652 706.361 86.8301 707.157ZM95.2242 708.089C95.2523 708.913 94.2919 709.597 93.1029 709.612C91.9073 709.639 90.9402 708.971 90.9269 708.16C90.9269 707.327 91.8659 706.65 93.0615 706.63C94.2505 706.607 95.2242 707.269 95.2242 708.089ZM103.47 707.773C103.613 708.577 102.787 709.404 101.606 709.624C100.445 709.836 99.3702 709.339 99.2229 708.541C99.0788 707.716 99.92 706.89 101.079 706.676C102.262 706.471 103.32 706.955 103.47 707.773Z" fill="white"/>
</g>
</g>
</g>
<defs>
<clipPath id="clip0_3_95">
<rect width="768" height="1028" fill="white"/>
</clipPath>
<clipPath id="clip1_3_95">
<rect width="256" height="256" fill="white"/>
</clipPath>
<clipPath id="clip2_3_95">
<rect width="256" height="256" fill="white" transform="translate(0 258)"/>
</clipPath>
<clipPath id="clip3_3_95">
<rect width="256" height="256" fill="white" transform="translate(256 256)"/>
</clipPath>
<clipPath id="clip4_3_95">
<rect width="256" height="256" fill="white" transform="translate(256 514)"/>
</clipPath>
<clipPath id="clip5_3_95">
<rect width="256" height="256" fill="white" transform="translate(512 512)"/>
</clipPath>
<clipPath id="clip6_3_95">
<rect width="256" height="256" fill="white" transform="translate(512 770)"/>
</clipPath>
<clipPath id="clip7_3_95">
<rect width="256" height="256" fill="white" transform="translate(256 772)"/>
</clipPath>
<clipPath id="clip8_3_95">
<rect width="256" height="256" fill="white" transform="translate(0 516)"/>
</clipPath>
</defs>
</svg>
