<svg width="800" height="792" viewBox="0 0 800 792" fill="none" xmlns="http://www.w3.org/2000/svg">
<g id="skill_icon" clip-path="url(#clip0_3_94)">
<g id="JavaScript" clip-path="url(#clip1_3_94)">
<path id="Vector" d="M740 0H604C570.863 0 544 26.8629 544 60V196C544 229.137 570.863 256 604 256H740C773.137 256 800 229.137 800 196V60C800 26.8629 773.137 0 740 0Z" fill="#F0DB4F"/>
<g id="jsInner">
<path id="Vector_2" d="M611.312 213.932L630.903 202.076C634.682 208.777 638.12 214.447 646.367 214.447C654.272 214.447 659.256 211.355 659.256 199.327V117.529H683.314V199.667C683.314 224.584 668.708 235.926 647.398 235.926C628.153 235.926 616.982 225.959 611.311 213.93" fill="#323330"/>
<path id="Vector_3" d="M696.381 211.354L715.969 200.013C721.126 208.434 727.828 214.62 739.684 214.62C749.653 214.62 756.009 209.636 756.009 202.762C756.009 194.514 749.479 191.592 738.481 186.782L732.468 184.203C715.111 176.815 703.597 167.535 703.597 147.945C703.597 129.901 717.345 116.153 738.826 116.153C754.12 116.153 765.118 121.481 773.022 135.4L754.291 147.429C750.166 140.04 745.7 137.119 738.826 137.119C731.78 137.119 727.312 141.587 727.312 147.429C727.312 154.646 731.78 157.568 742.09 162.037L748.104 164.614C768.553 173.379 780.067 182.313 780.067 202.418C780.067 224.072 763.055 235.928 740.2 235.928C717.861 235.928 703.426 225.274 696.381 211.354Z" fill="#323330"/>
</g>
</g>
<g id="HTML" clip-path="url(#clip2_3_94)">
<path id="Vector_4" d="M472 -1H336C302.863 -1 276 25.8629 276 59V195C276 228.137 302.863 255 336 255H472C505.137 255 532 228.137 532 195V59C532 25.8629 505.137 -1 472 -1Z" fill="#E14E1D"/>
<g id="htmlInner">
<path id="Vector_5" d="M324 37L332.61 133.593H443.32L439.605 175.023L403.959 184.661L368.38 175.037L366.001 148.435H333.939L338.524 199.716L403.951 217.888L469.461 199.716L478.244 101.655H361.824L358.901 68.9448H481.041H481.139L484 37H324Z" fill="white"/>
<path id="Vector_6" d="M404 37H324L332.61 133.593H404V101.655H361.824L358.901 68.9448H404V37Z" fill="#EBEBEB"/>
<path id="Vector_7" d="M404 184.647L403.959 184.661L368.38 175.037L366.001 148.435H333.939L338.524 199.716L403.951 217.888L404 217.874V184.647Z" fill="#EBEBEB"/>
</g>
</g>
<g id="CSS" clip-path="url(#clip3_3_94)">
<path id="Vector_8" d="M740 268H604C570.863 268 544 294.863 544 328V464C544 497.137 570.863 524 604 524H740C773.137 524 800 497.137 800 464V328C800 294.863 773.137 268 740 268Z" fill="#0277BD"/>
<g id="cssInner">
<path id="Vector_9" d="M597.753 370.651L600.615 402.593H672.096V370.651H597.753Z" fill="#EBEBEB"/>
<path id="Vector_10" d="M672.095 306H671.985H592L594.904 337.942H672.095V306Z" fill="#EBEBEB"/>
<path id="Vector_11" d="M672.095 486.841V453.608L671.955 453.645L636.381 444.04L634.107 418.564H616.821H602.042L606.517 468.718L671.948 486.882L672.095 486.841Z" fill="#EBEBEB"/>
<path id="Vector_12" d="M711.318 402.593L707.61 444.019L671.985 453.635V486.866L737.468 468.718L737.948 463.321L745.454 379.229L746.233 370.651L752 306H671.985V337.942H716.994L714.088 370.651H671.985V402.593H711.318Z" fill="white"/>
</g>
</g>
<g id="React-Dark" clip-path="url(#clip4_3_94)">
<path id="Vector_13" d="M472 268H336C302.863 268 276 294.863 276 328V464C276 497.137 302.863 524 336 524H472C505.137 524 532 497.137 532 464V328C532 294.863 505.137 268 472 268Z" fill="#242938"/>
<g id="reactInner">
<path id="Vector_14" fill-rule="evenodd" clip-rule="evenodd" d="M404.002 358.363C429.05 358.363 452.319 361.957 469.864 367.998C491.003 375.275 504 386.306 504 396.295C504 406.704 490.226 418.423 467.525 425.944C450.363 431.63 427.779 434.598 404.002 434.598C379.624 434.598 356.539 431.812 339.183 425.881C317.226 418.376 304 406.506 304 396.295C304 386.387 316.41 375.441 337.251 368.175C354.862 362.035 378.705 358.363 403.998 358.363H404.002Z" stroke="#00D8FF" stroke-width="8.911"/>
<path id="Vector_15" fill-rule="evenodd" clip-rule="evenodd" d="M370.981 377.438C383.495 355.74 398.232 337.378 412.23 325.197C429.094 310.521 445.144 304.773 453.796 309.762C462.813 314.962 466.084 332.75 461.259 356.171C457.614 373.879 448.9 394.925 437.021 415.523C424.842 436.641 410.897 455.247 397.09 467.315C379.619 482.587 362.728 488.114 353.883 483.013C345.3 478.067 342.018 461.846 346.136 440.161C349.615 421.838 358.345 399.349 370.977 377.438H370.981Z" stroke="#00D8FF" stroke-width="8.911"/>
<path id="Vector_16" fill-rule="evenodd" clip-rule="evenodd" d="M371.012 415.578C358.463 393.904 349.919 371.962 346.353 353.752C342.06 331.811 345.095 315.035 353.74 310.031C362.748 304.816 379.792 310.866 397.674 326.744C411.194 338.748 425.077 356.805 436.99 377.383C449.204 398.481 458.358 419.856 461.919 437.844C466.425 460.608 462.778 478.001 453.941 483.116C445.367 488.08 429.676 482.825 412.945 468.427C398.809 456.263 383.685 437.468 371.012 415.578Z" stroke="#00D8FF" stroke-width="8.911"/>
<path id="Vector_17" d="M404.001 414.951C414.305 414.951 422.657 406.598 422.657 396.295C422.657 385.992 414.305 377.639 404.001 377.639C393.698 377.639 385.345 385.992 385.345 396.295C385.345 406.598 393.698 414.951 404.001 414.951Z" fill="#00D8FF"/>
</g>
</g>
<g id="NodeJS-Dark" clip-path="url(#clip5_3_94)">
<path id="Vector_18" d="M202 268H66C32.8629 268 6 294.863 6 328V464C6 497.137 32.8629 524 66 524H202C235.137 524 262 497.137 262 464V328C262 294.863 235.137 268 202 268Z" fill="#242938"/>
<g id="nodejsInner">
<path id="Vector_19" d="M125.878 299.116C130.797 296.301 137.203 296.288 142.117 299.116C166.839 313.085 191.569 327.033 216.287 341.011C220.937 343.63 224.046 348.804 223.999 354.161V438.206C224.034 443.785 220.617 449.083 215.712 451.642C191.071 465.535 166.442 479.444 141.805 493.337C136.786 496.207 130.251 495.986 125.387 492.88C118 488.598 110.6 484.336 103.212 480.058C101.702 479.158 100 478.442 98.9345 476.978C99.8766 475.708 101.562 475.55 102.931 474.995C106.014 474.014 108.847 472.44 111.679 470.913C112.396 470.423 113.27 470.611 113.957 471.049C120.274 474.671 126.536 478.399 132.874 481.986C134.226 482.767 135.595 481.73 136.751 481.086C160.931 467.419 185.141 453.805 209.318 440.134C210.214 439.703 210.709 438.752 210.636 437.771C210.653 410.046 210.64 382.317 210.645 354.592C210.747 353.478 210.103 352.455 209.096 351.999C184.541 338.17 159.997 324.32 135.446 310.488C134.575 309.889 133.426 309.888 132.554 310.484C108.002 324.32 83.4638 338.183 58.9124 352.011C57.9092 352.467 57.236 353.474 57.3554 354.592C57.3596 382.317 57.3554 410.046 57.3554 437.775C57.2682 438.756 57.801 439.687 58.6906 440.109C65.2422 443.824 71.8024 447.513 78.3582 451.216C82.0516 453.203 86.5863 454.385 90.6555 452.862C94.2463 451.574 96.7633 447.909 96.6948 444.097C96.7288 416.534 96.6778 388.967 96.7203 361.408C96.6309 360.184 97.7912 359.173 98.981 359.288C102.129 359.267 105.281 359.246 108.429 359.297C109.743 359.267 110.647 360.585 110.485 361.817C110.472 389.555 110.519 417.293 110.464 445.03C110.472 452.423 107.435 460.467 100.597 464.084C92.1737 468.447 81.7619 467.522 73.4399 463.338C66.2355 459.742 59.3603 455.498 52.2838 451.646C47.3661 449.101 43.966 443.782 44.0006 438.207V354.161C43.949 348.693 47.1825 343.425 51.9764 340.844C76.6133 326.941 101.246 313.026 125.878 299.116Z" fill="#81CD39"/>
<path id="Vector_20" d="M147.372 357.335C158.117 356.643 169.62 356.925 179.289 362.218C186.776 366.275 190.926 374.789 191.058 383.106C190.849 384.227 189.676 384.846 188.605 384.769C185.488 384.765 182.369 384.812 179.252 384.748C177.929 384.799 177.161 383.58 176.995 382.411C176.099 378.431 173.928 374.49 170.183 372.57C164.433 369.692 157.767 369.837 151.497 369.897C146.92 370.139 141.998 370.536 138.12 373.227C135.143 375.266 134.239 379.382 135.301 382.697C136.303 385.077 139.05 385.845 141.299 386.553C154.248 389.94 167.97 389.602 180.672 394.059C185.931 395.876 191.075 399.409 192.875 404.915C195.23 412.295 194.198 421.115 188.947 427.039C184.689 431.914 178.488 434.568 172.303 436.009C164.075 437.844 155.536 437.891 147.18 437.076C139.323 436.18 131.146 434.116 125.081 428.763C119.894 424.259 117.361 417.241 117.612 410.469C117.672 409.325 118.811 408.527 119.907 408.621C123.046 408.596 126.186 408.587 129.325 408.626C130.58 408.536 131.509 409.62 131.574 410.802C132.152 414.593 133.577 418.573 136.884 420.82C143.264 424.937 151.271 424.655 158.577 424.77C164.63 424.502 171.425 424.421 176.364 420.42C178.97 418.138 179.742 414.32 179.038 411.036C178.275 408.263 175.374 406.971 172.883 406.126C160.1 402.083 146.224 403.55 133.565 398.977C128.425 397.161 123.455 393.727 121.481 388.447C118.726 380.974 119.988 371.73 125.789 366.006C131.445 360.312 139.609 358.12 147.372 357.335Z" fill="#81CD39"/>
</g>
</g>
<g id="Redux" clip-path="url(#clip6_3_94)">
<path id="Vector_21" d="M740 536H604C570.863 536 544 562.863 544 596V732C544 765.137 570.863 792 604 792H740C773.137 792 800 765.137 800 732V596C800 562.863 773.137 536 740 536Z" fill="#764ABC"/>
<g id="reduxInner">
<path id="Vector_22" d="M710.579 701.599C717.96 700.835 723.559 694.472 723.304 686.837C723.05 679.202 716.687 673.094 709.052 673.094H708.543C700.653 673.348 694.545 679.965 694.799 687.855C695.054 691.673 696.581 694.981 698.871 697.272C690.218 714.324 676.984 726.795 657.132 737.23C643.643 744.356 629.645 746.901 615.647 745.12C604.194 743.593 595.287 738.502 589.687 730.104C581.543 717.633 580.78 704.144 587.651 690.655C592.487 680.983 600.122 673.857 604.958 670.294C603.94 666.986 602.413 661.386 601.649 657.314C564.746 684.038 568.563 720.178 579.761 737.23C588.16 749.955 605.212 757.845 624.046 757.845C629.136 757.845 634.226 757.336 639.316 756.063C671.894 749.701 696.581 730.358 710.579 701.599Z" fill="white"/>
<path id="Vector_23" d="M755.372 670.04C736.03 647.388 707.525 634.918 674.948 634.918H670.876C668.585 630.336 663.749 627.282 658.405 627.282H657.896C650.006 627.537 643.898 634.154 644.152 642.044C644.407 649.679 650.769 655.787 658.405 655.787H658.914C664.513 655.533 669.349 651.97 671.385 647.134H675.966C695.308 647.134 713.633 652.733 730.176 663.677C742.901 672.076 752.064 683.02 757.154 696.254C761.481 706.943 761.226 717.378 756.645 726.286C749.519 739.775 737.557 747.156 721.777 747.156C711.597 747.156 701.926 744.102 696.835 741.811C694.036 744.356 688.946 748.428 685.383 750.973C696.326 756.063 707.525 758.863 718.214 758.863C742.647 758.863 760.717 745.374 767.589 731.885C774.97 717.124 774.461 691.673 755.372 670.04Z" fill="white"/>
<path id="Vector_24" d="M626.082 705.926C626.337 713.561 632.699 719.669 640.335 719.669H640.844C648.733 719.414 654.842 712.797 654.587 704.907C654.333 697.272 647.97 691.164 640.335 691.164H639.826C639.317 691.164 638.553 691.164 638.044 691.419C627.609 674.112 623.283 655.278 624.81 634.918C625.828 619.647 630.918 606.413 639.826 595.469C647.206 586.052 661.459 581.471 671.13 581.216C698.108 580.707 709.561 614.302 710.324 627.791C713.633 628.555 719.232 630.337 723.05 631.609C719.996 590.379 694.545 569 670.112 569C647.206 569 626.082 585.543 617.683 609.976C605.976 642.553 613.611 673.857 627.864 698.545C626.591 700.326 625.828 703.126 626.082 705.926Z" fill="white"/>
</g>
</g>
<g id="MaterialUI-Dark" clip-path="url(#clip7_3_94)">
<path id="Vector_25" d="M202 0H66C32.8629 0 6 26.8629 6 60V196C6 229.137 32.8629 256 66 256H202C235.137 256 262 229.137 262 196V60C262 26.8629 235.137 0 202 0Z" fill="#242938"/>
<path id="Vector_26" fill-rule="evenodd" clip-rule="evenodd" d="M198.031 157.671C198.823 157.216 199.482 156.561 199.941 155.771C200.4 154.981 200.643 154.084 200.646 153.171L200.74 123.03C200.742 122.117 200.986 121.22 201.445 120.43C201.903 119.64 202.562 118.985 203.354 118.53L219.693 109.145C220.485 108.69 221.382 108.452 222.295 108.453C223.208 108.455 224.105 108.696 224.895 109.154C225.686 109.611 226.342 110.268 226.798 111.059C227.254 111.85 227.495 112.747 227.495 113.661V168.457C227.495 169.374 227.253 170.273 226.794 171.066C226.335 171.859 225.675 172.517 224.88 172.973L163.219 208.39C162.431 208.842 161.539 209.08 160.631 209.081C159.723 209.082 158.83 208.845 158.042 208.395L109.651 180.718C108.854 180.262 108.191 179.605 107.73 178.811C107.269 178.017 107.026 177.115 107.026 176.197V148.567C107.026 148.536 107.063 148.515 107.094 148.53C107.12 148.546 107.156 148.53 107.156 148.494V148.463C107.156 148.442 107.167 148.421 107.188 148.411L147.042 125.515C147.078 125.494 147.062 125.437 147.021 125.437C147.01 125.437 146.999 125.432 146.991 125.424C146.984 125.417 146.979 125.406 146.979 125.395L147.057 98.3064C147.061 97.3904 146.823 96.4896 146.367 95.6949C145.912 94.9003 145.254 94.2399 144.462 93.7803C143.67 93.3207 142.77 93.0782 141.854 93.0773C140.938 93.0764 140.038 93.3171 139.245 93.7751L109.625 110.843C108.834 111.298 107.938 111.538 107.026 111.538C106.114 111.538 105.218 111.298 104.427 110.843L74.7135 93.7335C73.9219 93.2776 73.0243 93.038 72.1109 93.0387C71.1974 93.0393 70.3001 93.2802 69.5092 93.7372C68.7182 94.1941 68.0613 94.8511 67.6045 95.6421C67.1476 96.4331 66.9068 97.3304 66.9063 98.2439V147.202C66.9069 148.115 66.6677 149.011 66.2128 149.802C65.7578 150.593 65.1031 151.251 64.314 151.709C63.525 152.168 62.6293 152.411 61.7168 152.414C60.8043 152.417 59.9069 152.181 59.1146 151.728L42.625 142.301C41.8263 141.845 41.1627 141.185 40.7016 140.389C40.2405 139.594 39.9985 138.69 40 137.77L40.1458 52.197C40.1478 51.2847 40.3894 50.389 40.8464 49.5994C41.3033 48.8098 41.9597 48.1541 42.7497 47.698C43.5397 47.2418 44.4357 47.0011 45.348 47C46.2603 46.9989 47.1568 47.2375 47.9479 47.6918L104.432 80.1345C105.222 80.5878 106.116 80.8263 107.026 80.8263C107.936 80.8263 108.831 80.5878 109.62 80.1345L166.089 47.6918C166.881 47.2368 167.779 46.9982 168.692 47C169.606 47.0018 170.503 47.2438 171.294 47.7019C172.084 48.1599 172.74 48.8178 173.196 49.6096C173.652 50.4013 173.891 51.299 173.891 52.2126V137.806C173.891 138.722 173.65 139.622 173.192 140.414C172.734 141.207 172.075 141.865 171.281 142.322L141.708 159.353C140.914 159.811 140.255 160.471 139.797 161.265C139.339 162.059 139.099 162.961 139.101 163.878C139.103 164.794 139.347 165.694 139.809 166.487C140.27 167.279 140.933 167.935 141.729 168.39L158.042 177.676C158.83 178.125 159.722 178.36 160.629 178.358C161.536 178.356 162.427 178.118 163.214 177.666L198.031 157.671ZM201.453 80.8897C201.454 81.8108 201.699 82.7152 202.163 83.5107C202.627 84.3062 203.294 84.9644 204.096 85.4182C204.897 85.8719 205.805 86.1049 206.726 86.0935C207.647 86.0821 208.548 85.8267 209.339 85.3532L224.964 75.9782C225.735 75.5161 226.373 74.862 226.817 74.0798C227.261 73.2976 227.494 72.4139 227.495 71.5147V52.4105C227.493 51.4899 227.247 50.5862 226.783 49.7914C226.318 48.9966 225.651 48.3391 224.85 47.886C224.048 47.4329 223.141 47.2003 222.221 47.2119C221.3 47.2236 220.399 47.479 219.609 47.9522L203.984 57.3272C203.213 57.7894 202.574 58.4434 202.131 59.2256C201.687 60.0078 201.454 60.8915 201.453 61.7908V80.8949V80.8897Z" fill="#007FFF"/>
</g>
<g id="Github-Dark 1" clip-path="url(#clip8_3_94)">
<path id="Vector_27" d="M472 536H336C302.863 536 276 562.863 276 596V732C276 765.137 302.863 792 336 792H472C505.137 792 532 765.137 532 732V596C532 562.863 505.137 536 472 536Z" fill="#242938"/>
<g id="girhubInner">
<path id="Vector_28" d="M404.001 566C348.779 566 304 610.771 304 666.001C304 710.184 332.653 747.668 372.387 760.891C377.384 761.817 379.219 758.722 379.219 756.081C379.219 753.696 379.126 745.819 379.083 737.463C351.263 743.512 345.393 725.664 345.393 725.664C340.844 714.105 334.289 711.032 334.289 711.032C325.216 704.825 334.973 704.953 334.973 704.953C345.015 705.658 350.303 715.258 350.303 715.258C359.222 730.546 373.696 726.126 379.403 723.571C380.301 717.107 382.892 712.696 385.752 710.199C363.54 707.67 340.191 699.095 340.191 660.778C340.191 649.86 344.098 640.939 350.495 633.936C349.456 631.418 346.034 621.246 351.464 607.472C351.464 607.472 359.861 604.785 378.971 617.723C386.948 615.507 395.502 614.396 404.001 614.358C412.499 614.396 421.061 615.507 429.052 617.723C448.139 604.785 456.525 607.472 456.525 607.472C461.968 621.246 458.544 631.418 457.505 633.936C463.917 640.939 467.797 649.86 467.797 660.778C467.797 699.187 444.403 707.644 422.135 710.119C425.722 713.223 428.918 719.308 428.918 728.638C428.918 742.018 428.802 752.787 428.802 756.081C428.802 758.742 430.602 761.86 435.671 760.878C475.383 747.64 504 710.169 504 666.001C504 610.771 459.227 566 404.001 566ZM341.454 708.453C341.233 708.95 340.452 709.099 339.74 708.758C339.014 708.432 338.607 707.754 338.842 707.256C339.057 706.744 339.841 706.602 340.564 706.945C341.291 707.271 341.705 707.955 341.454 708.453ZM346.372 712.842C345.896 713.285 344.963 713.079 344.331 712.38C343.677 711.683 343.554 710.751 344.038 710.302C344.529 709.86 345.434 710.067 346.089 710.764C346.743 711.47 346.871 712.395 346.372 712.842ZM349.747 718.458C349.134 718.884 348.132 718.485 347.513 717.595C346.9 716.706 346.9 715.64 347.526 715.212C348.147 714.785 349.134 715.169 349.762 716.052C350.373 716.956 350.373 718.023 349.747 718.458ZM355.454 724.962C354.906 725.566 353.739 725.404 352.884 724.579C352.01 723.773 351.766 722.629 352.316 722.024C352.871 721.418 354.045 721.589 354.906 722.407C355.774 723.211 356.039 724.364 355.454 724.962ZM362.83 727.157C362.588 727.941 361.464 728.297 360.331 727.964C359.2 727.621 358.46 726.704 358.688 725.912C358.924 725.124 360.053 724.753 361.194 725.109C362.323 725.45 363.065 726.361 362.83 727.157ZM371.224 728.089C371.252 728.913 370.292 729.597 369.103 729.612C367.907 729.639 366.94 728.971 366.927 728.16C366.927 727.327 367.866 726.65 369.062 726.63C370.251 726.607 371.224 727.269 371.224 728.089ZM379.47 727.773C379.613 728.577 378.787 729.404 377.606 729.624C376.445 729.836 375.37 729.339 375.223 728.541C375.079 727.716 375.92 726.89 377.079 726.676C378.262 726.471 379.32 726.955 379.47 727.773Z" fill="white"/>
</g>
</g>
</g>
<defs>
<clipPath id="clip0_3_94">
<rect width="800" height="792" fill="white"/>
</clipPath>
<clipPath id="clip1_3_94">
<rect width="256" height="256" fill="white" transform="translate(544)"/>
</clipPath>
<clipPath id="clip2_3_94">
<rect width="256" height="256" fill="white" transform="translate(276 -1)"/>
</clipPath>
<clipPath id="clip3_3_94">
<rect width="256" height="256" fill="white" transform="translate(544 268)"/>
</clipPath>
<clipPath id="clip4_3_94">
<rect width="256" height="256" fill="white" transform="translate(276 268)"/>
</clipPath>
<clipPath id="clip5_3_94">
<rect width="256" height="256" fill="white" transform="translate(6 268)"/>
</clipPath>
<clipPath id="clip6_3_94">
<rect width="256" height="256" fill="white" transform="translate(544 536)"/>
</clipPath>
<clipPath id="clip7_3_94">
<rect width="256" height="256" fill="white" transform="translate(6)"/>
</clipPath>
<clipPath id="clip8_3_94">
<rect width="256" height="256" fill="white" transform="translate(276 536)"/>
</clipPath>
</defs>
</svg>
