<svg width="986" height="995" viewBox="0 0 986 995" fill="none" xmlns="http://www.w3.org/2000/svg">
<g id="skill__icon">
<g id="MaterialUI-Dark" clip-path="url(#clip0_1_137)">
<path id="muiOuter" d="M254 193H118C84.8629 193 58 219.863 58 253V389C58 422.137 84.8629 449 118 449H254C287.137 449 314 422.137 314 389V253C314 219.863 287.137 193 254 193Z" fill="#242938"/>
<path id="muiInner" fill-rule="evenodd" clip-rule="evenodd" d="M250.031 350.671C250.823 350.216 251.482 349.561 251.941 348.771C252.4 347.981 252.643 347.084 252.646 346.171L252.74 316.03C252.742 315.117 252.986 314.22 253.445 313.43C253.903 312.64 254.562 311.985 255.354 311.53L271.693 302.145C272.485 301.69 273.382 301.452 274.295 301.453C275.208 301.455 276.105 301.696 276.895 302.154C277.686 302.611 278.342 303.268 278.798 304.059C279.254 304.85 279.495 305.747 279.495 306.661V361.457C279.495 362.374 279.253 363.273 278.794 364.066C278.335 364.859 277.675 365.517 276.88 365.973L215.219 401.39C214.431 401.842 213.539 402.08 212.631 402.081C211.723 402.082 210.83 401.845 210.042 401.395L161.651 373.718C160.854 373.262 160.191 372.605 159.73 371.811C159.269 371.017 159.026 370.115 159.026 369.197V341.567C159.026 341.536 159.063 341.515 159.094 341.53C159.12 341.546 159.156 341.53 159.156 341.494V341.463C159.156 341.442 159.167 341.421 159.188 341.411L199.042 318.515C199.078 318.494 199.062 318.437 199.021 318.437C199.01 318.437 198.999 318.432 198.991 318.424C198.984 318.417 198.979 318.406 198.979 318.395L199.057 291.306C199.061 290.39 198.823 289.49 198.367 288.695C197.912 287.9 197.254 287.24 196.462 286.78C195.67 286.321 194.77 286.078 193.854 286.077C192.938 286.076 192.038 286.317 191.245 286.775L161.625 303.843C160.834 304.298 159.938 304.538 159.026 304.538C158.114 304.538 157.218 304.298 156.427 303.843L126.714 286.734C125.922 286.278 125.024 286.038 124.111 286.039C123.197 286.039 122.3 286.28 121.509 286.737C120.718 287.194 120.061 287.851 119.605 288.642C119.148 289.433 118.907 290.33 118.906 291.244V340.202C118.907 341.115 118.668 342.011 118.213 342.802C117.758 343.593 117.103 344.251 116.314 344.709C115.525 345.168 114.629 345.411 113.717 345.414C112.804 345.417 111.907 345.181 111.115 344.728L94.625 335.301C93.8263 334.845 93.1627 334.185 92.7016 333.389C92.2405 332.594 91.9985 331.69 92 330.77L92.1458 245.197C92.1478 244.285 92.3894 243.389 92.8464 242.599C93.3033 241.81 93.9597 241.154 94.7497 240.698C95.5397 240.242 96.4357 240.001 97.348 240C98.2603 239.999 99.1568 240.238 99.9479 240.692L156.432 273.135C157.222 273.588 158.116 273.826 159.026 273.826C159.936 273.826 160.831 273.588 161.62 273.135L218.089 240.692C218.881 240.237 219.779 239.998 220.692 240C221.606 240.002 222.503 240.244 223.294 240.702C224.084 241.16 224.74 241.818 225.196 242.61C225.652 243.401 225.891 244.299 225.891 245.213V330.806C225.891 331.722 225.65 332.622 225.192 333.414C224.734 334.207 224.075 334.865 223.281 335.322L193.708 352.353C192.914 352.811 192.255 353.471 191.797 354.265C191.339 355.059 191.099 355.961 191.101 356.878C191.103 357.794 191.347 358.694 191.809 359.487C192.27 360.279 192.933 360.935 193.729 361.39L210.042 370.676C210.83 371.125 211.722 371.36 212.629 371.358C213.536 371.356 214.427 371.118 215.214 370.666L250.031 350.671ZM253.453 273.89C253.454 274.811 253.699 275.715 254.163 276.511C254.627 277.306 255.294 277.964 256.096 278.418C256.897 278.872 257.805 279.105 258.726 279.094C259.647 279.082 260.548 278.827 261.339 278.353L276.964 268.978C277.735 268.516 278.373 267.862 278.817 267.08C279.261 266.298 279.494 265.414 279.495 264.515V245.411C279.493 244.49 279.247 243.586 278.783 242.791C278.318 241.997 277.651 241.339 276.85 240.886C276.048 240.433 275.141 240.2 274.221 240.212C273.3 240.224 272.399 240.479 271.609 240.952L255.984 250.327C255.213 250.789 254.574 251.443 254.131 252.226C253.687 253.008 253.454 253.892 253.453 254.791V273.895V273.89Z" fill="#007FFF"/>
</g>
<g id="Redux" clip-path="url(#clip1_1_137)">
<path id="reduxOuter" d="M560 697H424C390.863 697 364 723.863 364 757V893C364 926.137 390.863 953 424 953H560C593.137 953 620 926.137 620 893V757C620 723.863 593.137 697 560 697Z" fill="#764ABC"/>
<g id="reduxInner">
<path id="Vector" d="M530.579 862.599C537.96 861.835 543.559 855.472 543.304 847.837C543.05 840.202 536.687 834.094 529.052 834.094H528.543C520.653 834.348 514.545 840.965 514.799 848.855C515.054 852.673 516.581 855.981 518.871 858.272C510.218 875.324 496.984 887.795 477.132 898.23C463.643 905.356 449.645 907.901 435.647 906.12C424.194 904.593 415.287 899.502 409.687 891.104C401.543 878.633 400.78 865.144 407.651 851.655C412.487 841.983 420.122 834.857 424.958 831.294C423.94 827.986 422.413 822.386 421.649 818.314C384.746 845.038 388.563 881.178 399.761 898.23C408.16 910.955 425.212 918.845 444.046 918.845C449.136 918.845 454.226 918.336 459.316 917.063C491.894 910.701 516.581 891.358 530.579 862.599Z" fill="white"/>
<path id="Vector_2" d="M575.372 831.04C556.03 808.388 527.525 795.917 494.948 795.917H490.876C488.585 791.336 483.749 788.282 478.405 788.282H477.896C470.006 788.537 463.898 795.154 464.152 803.044C464.407 810.679 470.769 816.787 478.405 816.787H478.914C484.513 816.533 489.349 812.97 491.385 808.134H495.966C515.308 808.134 533.633 813.733 550.176 824.677C562.901 833.076 572.064 844.02 577.154 857.254C581.481 867.943 581.226 878.378 576.645 887.286C569.519 900.775 557.557 908.156 541.777 908.156C531.597 908.156 521.926 905.102 516.835 902.811C514.036 905.356 508.946 909.428 505.383 911.973C516.326 917.063 527.525 919.863 538.214 919.863C562.647 919.863 580.717 906.374 587.589 892.885C594.97 878.124 594.461 852.673 575.372 831.04Z" fill="white"/>
<path id="Vector_3" d="M446.082 866.926C446.337 874.561 452.699 880.669 460.335 880.669H460.844C468.733 880.414 474.842 873.797 474.587 865.907C474.333 858.272 467.97 852.164 460.335 852.164H459.826C459.317 852.164 458.553 852.164 458.044 852.419C447.609 835.112 443.283 816.278 444.81 795.918C445.828 780.647 450.918 767.413 459.826 756.469C467.206 747.052 481.459 742.471 491.13 742.216C518.108 741.707 529.561 775.302 530.324 788.791C533.633 789.555 539.232 791.337 543.05 792.609C539.996 751.379 514.545 730 490.112 730C467.206 730 446.082 746.543 437.683 770.976C425.976 803.553 433.611 834.857 447.864 859.545C446.591 861.326 445.828 864.126 446.082 866.926Z" fill="white"/>
</g>
</g>
<g id="JavaScript" clip-path="url(#clip2_1_137)">
<path id="jsOuter" d="M560 381H424C390.863 381 364 407.863 364 441V577C364 610.137 390.863 637 424 637H560C593.137 637 620 610.137 620 577V441C620 407.863 593.137 381 560 381Z" fill="#F0DB4F"/>
<g id="jsInner">
<path id="Vector_4" d="M431.312 594.932L450.903 583.076C454.682 589.777 458.12 595.447 466.367 595.447C474.272 595.447 479.256 592.355 479.256 580.327V498.529H503.314V580.667C503.314 605.584 488.708 616.926 467.398 616.926C448.153 616.926 436.982 606.959 431.311 594.93" fill="#323330"/>
<path id="Vector_5" d="M516.381 592.354L535.969 581.013C541.126 589.434 547.828 595.62 559.684 595.62C569.653 595.62 576.009 590.636 576.009 583.762C576.009 575.514 569.479 572.592 558.481 567.782L552.468 565.203C535.111 557.815 523.597 548.535 523.597 528.945C523.597 510.901 537.345 497.153 558.826 497.153C574.12 497.153 585.118 502.481 593.022 516.4L574.291 528.429C570.166 521.04 565.7 518.119 558.826 518.119C551.78 518.119 547.312 522.587 547.312 528.429C547.312 535.646 551.78 538.568 562.09 543.037L568.104 545.614C588.553 554.379 600.067 563.313 600.067 583.418C600.067 605.072 583.055 616.928 560.2 616.928C537.861 616.928 523.426 606.274 516.381 592.354Z" fill="#323330"/>
</g>
</g>
<g id="NodeJS-Dark" clip-path="url(#clip3_1_137)">
<path id="nodeOuter" d="M866 569H730C696.863 569 670 595.863 670 629V765C670 798.137 696.863 825 730 825H866C899.137 825 926 798.137 926 765V629C926 595.863 899.137 569 866 569Z" fill="#242938"/>
<g id="nodeInner">
<path id="Vector_6" d="M789.878 600.116C794.797 597.301 801.203 597.288 806.117 600.116C830.839 614.086 855.569 628.033 880.287 642.011C884.937 644.63 888.046 649.804 887.999 655.161V739.206C888.034 744.785 884.617 750.083 879.712 752.642C855.071 766.535 830.442 780.444 805.805 794.337C800.786 797.207 794.251 796.986 789.387 793.88C782 789.598 774.6 785.336 767.212 781.058C765.702 780.158 764 779.442 762.935 777.978C763.877 776.708 765.562 776.55 766.931 775.995C770.014 775.014 772.847 773.44 775.679 771.913C776.396 771.423 777.27 771.611 777.957 772.049C784.274 775.671 790.536 779.399 796.874 782.986C798.226 783.767 799.595 782.73 800.751 782.086C824.931 768.419 849.141 754.805 873.318 741.134C874.214 740.703 874.709 739.752 874.636 738.771C874.653 711.046 874.64 683.317 874.645 655.592C874.747 654.479 874.103 653.455 873.096 652.999C848.541 639.17 823.997 625.321 799.446 611.488C798.575 610.889 797.426 610.888 796.554 611.484C772.002 625.321 747.464 639.183 722.912 653.011C721.909 653.468 721.236 654.475 721.355 655.592C721.36 683.317 721.355 711.046 721.355 738.775C721.268 739.756 721.801 740.687 722.691 741.109C729.242 744.824 735.802 748.513 742.358 752.216C746.052 754.203 750.586 755.385 754.656 753.862C758.246 752.574 760.763 748.909 760.695 745.097C760.729 717.534 760.678 689.967 760.72 662.408C760.631 661.184 761.791 660.173 762.981 660.289C766.129 660.267 769.281 660.246 772.429 660.297C773.743 660.267 774.647 661.585 774.485 662.817C774.472 690.555 774.519 718.293 774.464 746.03C774.472 753.423 771.435 761.467 764.597 765.084C756.174 769.447 745.762 768.522 737.44 764.338C730.236 760.742 723.36 756.498 716.284 752.646C711.366 750.101 707.966 744.782 708.001 739.207V655.161C707.949 649.693 711.183 644.425 715.976 641.845C740.613 627.941 765.246 614.026 789.878 600.116Z" fill="#81CD39"/>
<path id="Vector_7" d="M811.372 658.335C822.117 657.643 833.62 657.926 843.289 663.219C850.776 667.275 854.926 675.789 855.058 684.106C854.849 685.227 853.676 685.846 852.605 685.769C849.488 685.765 846.369 685.812 843.252 685.748C841.929 685.799 841.161 684.58 840.995 683.411C840.099 679.431 837.928 675.49 834.183 673.57C828.433 670.692 821.767 670.837 815.497 670.897C810.92 671.139 805.998 671.536 802.12 674.227C799.143 676.266 798.239 680.382 799.301 683.697C800.303 686.077 803.05 686.845 805.299 687.553C818.248 690.94 831.97 690.602 844.672 695.059C849.931 696.876 855.075 700.409 856.875 705.915C859.23 713.295 858.198 722.115 852.947 728.039C848.689 732.914 842.488 735.568 836.303 737.009C828.075 738.844 819.536 738.891 811.18 738.076C803.323 737.18 795.146 735.116 789.081 729.763C783.894 725.259 781.361 718.241 781.612 711.469C781.672 710.325 782.811 709.527 783.907 709.621C787.046 709.596 790.186 709.587 793.325 709.626C794.58 709.536 795.509 710.62 795.574 711.802C796.152 715.593 797.577 719.573 800.884 721.82C807.264 725.937 815.271 725.655 822.577 725.77C828.63 725.502 835.425 725.421 840.364 721.42C842.97 719.138 843.742 715.32 843.038 712.036C842.275 709.263 839.374 707.971 836.883 707.126C824.1 703.083 810.224 704.55 797.565 699.977C792.425 698.161 787.455 694.727 785.481 689.447C782.726 681.974 783.988 672.73 789.789 667.006C795.445 661.312 803.609 659.12 811.372 658.335Z" fill="#81CD39"/>
</g>
</g>
<g id="React-Dark" clip-path="url(#clip4_1_137)">
<path id="reactOuter" d="M560 65H424C390.863 65 364 91.8629 364 125V261C364 294.137 390.863 321 424 321H560C593.137 321 620 294.137 620 261V125C620 91.8629 593.137 65 560 65Z" fill="#242938"/>
<path id="reactCirle" d="M492.001 211.951C502.305 211.951 510.657 203.598 510.657 193.295C510.657 182.992 502.305 174.639 492.001 174.639C481.698 174.639 473.345 182.992 473.345 193.295C473.345 203.598 481.698 211.951 492.001 211.951Z" fill="#00D8FF"/>
<g id="reactInner">
<path id="Vector_8" fill-rule="evenodd" clip-rule="evenodd" d="M492.002 155.363C517.05 155.363 540.319 158.957 557.864 164.998C579.003 172.275 592 183.306 592 193.295C592 203.704 578.226 215.423 555.525 222.944C538.363 228.63 515.779 231.598 492.002 231.598C467.624 231.598 444.539 228.812 427.183 222.881C405.226 215.376 392 203.506 392 193.295C392 183.387 404.41 172.441 425.251 165.175C442.862 159.035 466.705 155.363 491.998 155.363H492.002Z" stroke="#00D8FF" stroke-width="8.911"/>
<path id="Vector_9" fill-rule="evenodd" clip-rule="evenodd" d="M458.981 174.438C471.495 152.74 486.232 134.378 500.23 122.197C517.094 107.521 533.144 101.773 541.796 106.762C550.813 111.962 554.084 129.75 549.259 153.171C545.614 170.879 536.9 191.925 525.021 212.523C512.842 233.641 498.897 252.247 485.09 264.315C467.619 279.587 450.728 285.114 441.883 280.013C433.3 275.067 430.018 258.846 434.136 237.161C437.615 218.838 446.345 196.349 458.977 174.438H458.981Z" stroke="#00D8FF" stroke-width="8.911"/>
<path id="Vector_10" fill-rule="evenodd" clip-rule="evenodd" d="M459.012 212.578C446.463 190.904 437.919 168.962 434.353 150.752C430.06 128.811 433.095 112.036 441.74 107.032C450.748 101.816 467.792 107.866 485.674 123.744C499.194 135.748 513.077 153.805 524.99 174.383C537.204 195.481 546.358 216.856 549.919 234.844C554.425 257.608 550.778 275.001 541.941 280.116C533.367 285.08 517.676 279.825 500.945 265.427C486.809 253.263 471.685 234.468 459.012 212.578Z" stroke="#00D8FF" stroke-width="8.911"/>
</g>
</g>
<g id="HTML" clip-path="url(#clip5_1_137)">
<path id="htmlOuter" d="M254 569H118C84.8629 569 58 595.863 58 629V765C58 798.137 84.8629 825 118 825H254C287.137 825 314 798.137 314 765V629C314 595.863 287.137 569 254 569Z" fill="#E14E1D"/>
<g id="htmlInner">
<path id="Vector_11" d="M106 607L114.61 703.593H225.32L221.605 745.023L185.959 754.661L150.38 745.037L148.001 718.435H115.939L120.524 769.716L185.951 787.888L251.461 769.716L260.244 671.655H143.824L140.901 638.945H263.041H263.139L266 607H106Z" fill="white"/>
<path id="Vector_12" d="M186 607H106L114.61 703.593H186V671.655H143.824L140.901 638.945H186V607Z" fill="#EBEBEB"/>
<path id="Vector_13" d="M186 754.647L185.959 754.661L150.38 745.037L148.001 718.435H115.939L120.524 769.716L185.951 787.888L186 787.874V754.647Z" fill="#EBEBEB"/>
</g>
</g>
<g id="CSS" clip-path="url(#clip6_1_137)">
<path id="cssOuter" d="M866 193H730C696.863 193 670 219.863 670 253V389C670 422.137 696.863 449 730 449H866C899.137 449 926 422.137 926 389V253C926 219.863 899.137 193 866 193Z" fill="#0277BD"/>
<g id="cssInner">
<path id="Vector_14" d="M723.753 295.651L726.615 327.593H798.096V295.651H723.753Z" fill="#EBEBEB"/>
<path id="Vector_15" d="M798.095 231H797.985H718L720.904 262.942H798.095V231Z" fill="#EBEBEB"/>
<path id="Vector_16" d="M798.095 411.841V378.608L797.955 378.645L762.381 369.04L760.107 343.564H742.821H728.042L732.517 393.718L797.948 411.882L798.095 411.841Z" fill="#EBEBEB"/>
<path id="Vector_17" d="M837.318 327.593L833.61 369.019L797.985 378.635V411.866L863.468 393.718L863.948 388.321L871.454 304.229L872.233 295.651L878 231H797.985V262.942H842.994L840.088 295.651H797.985V327.593H837.318Z" fill="white"/>
</g>
</g>
</g>
<defs>
<clipPath id="clip0_1_137">
<rect width="256" height="256" fill="white" transform="translate(58 193)"/>
</clipPath>
<clipPath id="clip1_1_137">
<rect width="256" height="256" fill="white" transform="translate(364 697)"/>
</clipPath>
<clipPath id="clip2_1_137">
<rect width="256" height="256" fill="white" transform="translate(364 381)"/>
</clipPath>
<clipPath id="clip3_1_137">
<rect width="256" height="256" fill="white" transform="translate(670 569)"/>
</clipPath>
<clipPath id="clip4_1_137">
<rect width="256" height="256" fill="white" transform="translate(364 65)"/>
</clipPath>
<clipPath id="clip5_1_137">
<rect width="256" height="256" fill="white" transform="translate(58 569)"/>
</clipPath>
<clipPath id="clip6_1_137">
<rect width="256" height="256" fill="white" transform="translate(670 193)"/>
</clipPath>
</defs>
</svg>
