<svg width="256" height="256" viewBox="0 0 256 256" fill="none" xmlns="http://www.w3.org/2000/svg">
<g id="CSS" clip-path="url(#clip0_1_92)">
<path id="Vector" d="M196 0H60C26.8629 0 0 26.8629 0 60V196C0 229.137 26.8629 256 60 256H196C229.137 256 256 229.137 256 196V60C256 26.8629 229.137 0 196 0Z" fill="#F4F2ED"/>
<path id="Vector_2" d="M53.7527 102.651L56.6155 134.593H128.096V102.651H53.7527Z" fill="#BF5B04" fill-opacity="0.8"/>
<path id="Vector_3" d="M128.095 38H127.985H48L50.9036 69.9423H128.095V38Z" fill="#BF5B04" fill-opacity="0.8"/>
<path id="Vector_4" d="M128.095 218.841V185.608L127.955 185.645L92.3813 176.04L90.1072 150.564H72.821H58.0425L62.5175 200.718L127.948 218.882L128.095 218.841Z" fill="#BF5B04" fill-opacity="0.8"/>
<path id="Vector_5" d="M167.318 134.593L163.61 176.019L127.985 185.635V218.866L193.468 200.718L193.948 195.321L201.454 111.229L202.233 102.651L208 38H127.985V69.9423H172.994L170.088 102.651H127.985V134.593H167.318Z" fill="#BF5B04"/>
</g>
<defs>
<clipPath id="clip0_1_92">
<rect width="256" height="256" fill="white"/>
</clipPath>
</defs>
</svg>
